<?xml version="1.0" encoding="UTF-8"?>
<svg width="733px" height="297px" viewBox="0 0 733 297" version="1.1" xmlns="http://www.w3.org/2000/svg" xmlns:xlink="http://www.w3.org/1999/xlink">
    <title>Artboard</title>
    <defs>
        <path d="M110.636012,81.3508496 C110.720685,81.3810899 110.808381,81.4113302 110.893054,81.4476185 C111.827478,81.7923575 112.81331,81.9768232 113.799143,81.9979913 C116.100426,82.0463758 118.425902,81.2208165 120.219149,79.5031693 C122.018444,77.7794741 122.94682,75.49331 122.998228,73.2010978 C123.043589,70.8967895 122.21803,68.5713129 120.503407,66.7810892 C118.776689,64.9787693 116.493549,64.0503931 114.201338,64.0020087 C111.894007,63.9536242 109.571555,64.7791835 107.781332,66.4968307 L107.711779,66.5633592 L107.693635,66.5784794 L107.678515,66.5966235 L107.611986,66.6601281 L107.608962,66.6631521 C105.921556,68.3656791 105.047613,70.5792667 105.002252,72.7989022 C104.950844,75.1032105 105.779427,77.425663 107.497073,79.2189108 C108.413353,80.1745033 109.486882,80.8881736 110.636012,81.3508496" id="path-1"></path>
        <filter x="-66.7%" y="-66.7%" width="233.3%" height="233.3%" filterUnits="objectBoundingBox" id="filter-2">
            <feMorphology radius="2" operator="dilate" in="SourceAlpha" result="shadowSpreadOuter1"></feMorphology>
            <feOffset dx="0" dy="0" in="shadowSpreadOuter1" result="shadowOffsetOuter1"></feOffset>
            <feGaussianBlur stdDeviation="2" in="shadowOffsetOuter1" result="shadowBlurOuter1"></feGaussianBlur>
            <feColorMatrix values="0 0 0 0 1   0 0 0 0 0.251893252   0 0 0 0 0.371012092  0 0 0 1 0" type="matrix" in="shadowBlurOuter1"></feColorMatrix>
        </filter>
        <filter x="-47.2%" y="-47.2%" width="194.4%" height="194.4%" filterUnits="objectBoundingBox" id="filter-3">
            <feOffset dx="0" dy="1" in="SourceAlpha" result="shadowOffsetInner1"></feOffset>
            <feComposite in="shadowOffsetInner1" in2="SourceAlpha" operator="arithmetic" k2="-1" k3="1" result="shadowInnerInner1"></feComposite>
            <feColorMatrix values="0 0 0 0 1   0 0 0 0 1   0 0 0 0 1  0 0 0 0.139341128 0" type="matrix" in="shadowInnerInner1"></feColorMatrix>
        </filter>
        <path d="M49.1721599,45.8618518 C49.2961097,45.9495268 49.4140132,46.0432485 49.5258703,46.14604 C50.4811906,46.8806967 51.6027849,47.4309334 52.8483291,47.7362846 C55.2698846,48.3318705 57.7035327,47.8904718 59.6685902,46.6962767 C61.5399296,45.5625472 63.0001185,43.7485799 63.6440527,41.4992605 C63.6652149,41.396469 63.6894002,41.2906542 63.7196319,41.1878628 L63.7619562,41.0487919 C64.3182186,38.6604017 63.8738133,36.2720115 62.697802,34.3310665 C61.9027095,33.02501 60.7750688,31.9154667 59.3995285,31.1445306 L59.2241849,31.050809 C58.5832738,30.7091785 57.890969,30.4461532 57.1533166,30.2617332 C54.7317611,29.6691706 52.3011361,30.1105693 50.3330555,31.3047644 C48.3891601,32.4808199 46.8896701,34.3945553 46.285037,36.7648059 L46.2336432,36.9673656 C45.6834271,39.3497093 46.1308555,41.7320529 47.3038437,43.6699746 C47.802666,44.4892832 48.4314844,45.2330098 49.1721599,45.8618518" id="path-4"></path>
        <filter x="-66.7%" y="-66.7%" width="233.3%" height="233.3%" filterUnits="objectBoundingBox" id="filter-5">
            <feMorphology radius="2" operator="dilate" in="SourceAlpha" result="shadowSpreadOuter1"></feMorphology>
            <feOffset dx="0" dy="0" in="shadowSpreadOuter1" result="shadowOffsetOuter1"></feOffset>
            <feGaussianBlur stdDeviation="2" in="shadowOffsetOuter1" result="shadowBlurOuter1"></feGaussianBlur>
            <feColorMatrix values="0 0 0 0 1   0 0 0 0 0.251893252   0 0 0 0 0.371012092  0 0 0 1 0" type="matrix" in="shadowBlurOuter1"></feColorMatrix>
        </filter>
        <filter x="-47.2%" y="-47.2%" width="194.5%" height="194.5%" filterUnits="objectBoundingBox" id="filter-6">
            <feOffset dx="0" dy="1" in="SourceAlpha" result="shadowOffsetInner1"></feOffset>
            <feComposite in="shadowOffsetInner1" in2="SourceAlpha" operator="arithmetic" k2="-1" k3="1" result="shadowInnerInner1"></feComposite>
            <feColorMatrix values="0 0 0 0 1   0 0 0 0 1   0 0 0 0 1  0 0 0 0.139341128 0" type="matrix" in="shadowInnerInner1"></feColorMatrix>
        </filter>
        <path d="M45.3016393,115.668922 C46.4929264,117.633984 48.4401063,119.14557 50.8468691,119.738111 C52.391914,120.116008 53.9399825,120.073683 55.3701317,119.683694 L55.3792025,119.680671 L55.3882732,119.677648 L55.5334046,119.638346 C56.2862738,119.414632 57.0058838,119.100222 57.6680459,118.695117 C59.6333673,117.503987 61.1451529,115.560088 61.7347493,113.153644 C61.7831265,112.966207 61.8224329,112.772724 61.8587157,112.585288 L61.8617393,112.561102 C62.2548036,110.333025 61.7921972,108.141226 60.6976644,106.330346 C59.5063773,104.368308 57.5622209,102.853699 55.1524346,102.261157 C52.7275304,101.668616 50.2996027,102.113022 48.3312578,103.304151 C47.9805235,103.515773 47.6479307,103.751581 47.3274321,104.00855 C47.2518428,104.078083 47.1762535,104.144593 47.0946171,104.205057 C45.7370336,105.38107 44.7211136,106.974281 44.2615308,108.845625 C44.0408101,109.74653 43.9621973,110.650458 44.0166215,111.530201 C44.0287158,111.642058 44.0377865,111.756939 44.0408101,111.868796 L44.0408101,111.880889 C44.1738472,113.238293 44.6122651,114.529187 45.3016393,115.668922" id="path-7"></path>
        <filter x="-66.6%" y="-66.7%" width="233.3%" height="233.3%" filterUnits="objectBoundingBox" id="filter-8">
            <feMorphology radius="2" operator="dilate" in="SourceAlpha" result="shadowSpreadOuter1"></feMorphology>
            <feOffset dx="0" dy="0" in="shadowSpreadOuter1" result="shadowOffsetOuter1"></feOffset>
            <feGaussianBlur stdDeviation="2" in="shadowOffsetOuter1" result="shadowBlurOuter1"></feGaussianBlur>
            <feColorMatrix values="0 0 0 0 1   0 0 0 0 0.251893252   0 0 0 0 0.371012092  0 0 0 1 0" type="matrix" in="shadowBlurOuter1"></feColorMatrix>
        </filter>
        <filter x="-47.1%" y="-47.2%" width="194.4%" height="194.4%" filterUnits="objectBoundingBox" id="filter-9">
            <feOffset dx="0" dy="1" in="SourceAlpha" result="shadowOffsetInner1"></feOffset>
            <feComposite in="shadowOffsetInner1" in2="SourceAlpha" operator="arithmetic" k2="-1" k3="1" result="shadowInnerInner1"></feComposite>
            <feColorMatrix values="0 0 0 0 1   0 0 0 0 1   0 0 0 0 1  0 0 0 0.139341128 0" type="matrix" in="shadowInnerInner1"></feColorMatrix>
        </filter>
    </defs>
    <g id="Artboard" stroke="none" stroke-width="1" fill="none" fill-rule="evenodd">
        <g id="Group" transform="translate(21.000000, 52.000000)">
            <text id="meshy" font-family="Inter-Regular_Medium, Inter" font-size="160" font-weight="400" fill="#14123E">
                <tspan x="187" y="155">meshy</tspan>
            </text>
            <g id="dreamstime_109028205" transform="translate(0.000000, 39.000000)">
                <path d="M135.448084,117.470038 C135.192574,118.03393 134.813714,118.50384 134.361432,118.865084 C133.05745,120.615498 131.674171,122.324796 130.196911,123.987102 C116.534465,139.361969 97.9292193,147.743988 78.895187,148.868834 C59.8582177,149.996618 40.3953984,143.85842 25.0148665,130.195787 C9.64020839,116.536092 1.25536619,97.930595 0.130534471,78.8963047 C-0.994297249,59.8590775 5.1438184,40.3959944 18.8033284,25.0152541 C32.4628384,9.63745072 51.0680837,1.25543183 70.1050529,0.13058487 C89.1390852,-0.994262093 108.604841,5.1409998 123.982436,18.8036318 C139.360031,32.4633269 147.744874,51.0688244 148.869705,70.1060516 C149.833008,86.4266118 145.459967,103.067298 135.580244,117.173408 L135.448084,117.470038" id="Fill-5" fill="#14123E"></path>
                <g id="Fill-6">
                    <use fill="black" fill-opacity="1" filter="url(#filter-2)" xlink:href="#path-1"></use>
                    <use fill="#FF405F" fill-rule="evenodd" xlink:href="#path-1"></use>
                    <use fill="black" fill-opacity="1" filter="url(#filter-3)" xlink:href="#path-1"></use>
                </g>
                <path d="M124,59.8885891 C124.513425,60.2964646 125.008622,60.7366179 125.482553,61.2119835 C128.684623,64.4427091 130.230974,68.6212315 130.139833,72.7616073 C130.072997,75.6812911 129.201086,78.5833688 127.527138,81.1215864 C131.582892,85.2971745 135.198133,90.8519097 137.002715,96.9876473 C137.099932,97.3250982 137.191072,97.6625491 137.279175,98 C140.943024,88.9240381 142.462032,79.261205 141.878733,69.7216148 C141.152647,57.8433433 137.16373,46.1528705 130.003123,36 C130.015275,36.4489564 130.018313,36.8979128 130.012237,37.3468692 C129.91502,44.6328742 127.378275,52.0920062 124,59.8885891" id="Fill-7" fill="#EAE9FF"></path>
                <g id="Fill-8">
                    <use fill="black" fill-opacity="1" filter="url(#filter-5)" xlink:href="#path-4"></use>
                    <use fill="#FF405F" fill-rule="evenodd" xlink:href="#path-4"></use>
                    <use fill="black" fill-opacity="1" filter="url(#filter-6)" xlink:href="#path-4"></use>
                </g>
                <path d="M79,7.30910795 C75.6052272,6.97437069 72.190316,6.91270857 68.7926663,7.11824899 C52.0230642,8.12833335 35.6274625,15.6716669 23.581773,29.5104099 C22.3159255,30.9668106 21.1220012,32.4672557 20,34 L20.5638775,33.7827144 C26.5708992,31.5423238 33.2022138,31.0519631 39.6695436,31.8711885 C41.0303296,29.0347306 43.1506241,26.723869 45.7024576,25.1441441 C49.1777843,22.9947785 53.4557734,22.1931709 57.6992393,23.2561085 C58.0070704,23.3353883 58.3091476,23.4176045 58.608348,23.5115659 C63.4358299,17.5714476 69.9491906,11.9719393 76.974644,8.30744715 C77.6449678,7.95509214 78.3210454,7.62329117 79,7.30910795" id="Fill-9" fill="#EAE9FF"></path>
                <g id="Fill-10">
                    <use fill="black" fill-opacity="1" filter="url(#filter-8)" xlink:href="#path-7"></use>
                    <use fill="#FF405F" fill-rule="evenodd" xlink:href="#path-7"></use>
                    <use fill="black" fill-opacity="1" filter="url(#filter-9)" xlink:href="#path-7"></use>
                </g>
                <path d="M69.3030239,116.5591 C68.1123874,119.991019 65.8545878,122.810726 63,124.720945 C66.8159165,129.686337 71.1492455,133.442022 75.7618595,135.988 C81.3916594,139.096153 87.456556,140.400047 93.5185128,139.893794 C105.357262,136.511912 116.411072,129.82173 125.198264,119.920379 C126.779899,118.139666 128.249821,116.297144 129.608028,114.398698 C131.430731,109.812995 131.324897,105.088955 130.090163,100.726945 C128.702557,95.8204192 125.912646,91.3671658 122.772893,88 C120.109395,89.5952831 117.096056,90.3605481 114.097416,90.2957949 C113.194884,90.2781349 112.301171,90.1839485 111.413339,90.0161788 C106.248034,96.700474 100.021446,102.245702 93.1098746,106.628315 C85.7984844,111.261112 77.7139155,114.584127 69.3030239,116.5591" id="Fill-11" fill="#EAE9FF"></path>
                <path d="M48.354219,95.5361335 C51.3023977,94.4012028 54.611459,94.1247454 57.9030583,94.9337472 C62.2132781,95.9871957 65.6911394,98.6964788 67.8215113,102.211854 C68.8896076,103.972451 69.620104,105.936754 69.9547936,108 C76.6282129,106.192841 83.0367908,103.425356 88.8865826,99.7208265 C94.52974,96.1501601 99.6548561,91.7006499 104,86.4013968 C103.423752,85.9474246 102.870786,85.4468911 102.352745,84.9027064 C99.2823321,81.6987099 97.8009669,77.554758 97.8911875,73.445727 C97.9493944,70.6433214 98.7380977,67.8583762 100.239835,65.3964497 C96.0111052,61.6890096 91.1100856,58.2376564 85.9791487,55.2751964 L85.9675074,55.2693763 C80.7550809,52.2690853 75.3098269,49.7635076 70.1003108,48 C68.723718,50.5346784 66.7068495,52.6066544 64.3116362,54.0558735 C60.7959404,56.1889611 56.471169,56.9805025 52.1784113,55.927054 C51.4391838,55.7466292 50.7232392,55.519643 50.0363979,55.2460956 C47.6149916,61.665729 46.3227988,68.3298089 46.0550471,74.999709 C45.7727437,81.9169658 46.5818194,88.8487729 48.354219,95.5361335" id="Fill-12" fill="#EAE9FF"></path>
                <path d="M36.5798632,107 C36.6202689,106.796268 36.6635607,106.595489 36.7126248,106.39471 C37.333141,103.796393 38.5308816,101.496292 40.1326792,99.606607 C37.6823617,91.3008504 36.5365714,82.5994409 36.882906,73.9127947 C37.2061516,65.6926644 38.8656717,57.4932026 42,49.6569147 C41.4256618,48.9719038 40.9090459,48.2396508 40.4530387,47.4719662 C38.9984333,45.0212809 38.1758886,42.1808479 38.138369,39.2311676 C32.975097,38.6701673 27.7656471,39.1012517 23.0987882,40.8433052 C18.4146124,42.5971692 14.2470525,45.7003864 11.2079662,50.4925098 C7.92644571,59.4124141 6.5757407,68.8696975 7.11544548,78.2118283 C7.2106875,79.8889239 7.3694242,81.5630668 7.58876946,83.2313044 C9.08378056,89.8363444 13.2253654,94.9827837 18.2299006,98.7975855 C24.1233614,103.285588 31.125093,105.931147 36.5798632,107" id="Fill-13" fill="#EAE9FF"></path>
                <path d="M49.7915235,126.694663 C45.5504009,125.633174 42.1282932,122.91073 40.0320733,119.381204 C39.2932417,118.132564 38.7176403,116.787426 38.3281787,115.37503 C31.9020619,114.366177 23.2451317,111.354236 16,106 C19.5853379,113.079522 24.4793814,119.618065 30.6620848,125.226708 C42.2943872,135.777272 56.5841924,141.315734 71,142 C65.1752577,138.666396 59.7886598,133.686459 55.1953036,127.068963 C53.4341352,127.261961 51.6071019,127.147916 49.7915235,126.694663" id="Fill-14" fill="#EAE9FF"></path>
                <path d="M115.869913,20.4331417 C110.80465,16.5927552 105.329806,13.5691024 99.6221769,11.3477023 C94.2710909,10.2905823 88.3277316,11.7242108 82.6849289,14.5596093 C76.7710359,17.5340264 71.2460985,22.0057887 67,26.8193049 C67.9989087,27.772161 68.8622722,28.8408658 69.5783041,30.0022497 C71.1812726,32.6001583 72.0357963,35.6440846 71.9326641,38.7864823 C77.790571,40.7037794 83.9225148,43.46098 89.7804218,46.7858395 C95.5469831,50.0643596 101.054241,53.8902651 105.771801,58 C108.497436,56.3375702 111.606134,55.5382137 114.694206,55.6048268 C115.77562,55.6251003 116.854088,55.752534 117.91193,55.9842315 C120.784897,49.1897014 122.918259,42.7832647 122.997819,36.8749777 C123.074431,31.1317752 121.14144,25.6666097 115.869913,20.4331417" id="Fill-15" fill="#EAE9FF"></path>
            </g>
        </g>
    </g>
</svg>